<mxfile host="app.diagrams.net" modified="2022-02-23T14:44:32.161Z" agent="5.0 (Macintosh; Intel Mac OS X 10_15_7) AppleWebKit/537.36 (KHTML, like Gecko) Chrome/94.0.4606.81 Safari/537.36" etag="hPlHFG7l6jz1cEYGJ3X6" version="16.5.4" type="github" pages="3">
  <diagram id="SKKzE6Iao9R-_Yztl67t" name="Page-1">
    <mxGraphModel dx="897" dy="590" grid="0" gridSize="10" guides="1" tooltips="1" connect="1" arrows="1" fold="1" page="1" pageScale="1" pageWidth="827" pageHeight="1169" math="0" shadow="0">
      <root>
        <mxCell id="0" />
        <mxCell id="1" parent="0" />
        <mxCell id="mznChEo3XW0MF7L3gDeP-1" value="APP&amp;nbsp;" style="rounded=1;whiteSpace=wrap;html=1;fillColor=#ffe6cc;strokeColor=#d79b00;" parent="1" vertex="1">
          <mxGeometry x="320" y="230" width="270" height="40" as="geometry" />
        </mxCell>
        <mxCell id="mznChEo3XW0MF7L3gDeP-2" value="Vision" style="rounded=1;whiteSpace=wrap;html=1;fillColor=#b0e3e6;strokeColor=#0e8088;" parent="1" vertex="1">
          <mxGeometry x="320" y="280" width="60" height="30" as="geometry" />
        </mxCell>
        <mxCell id="mznChEo3XW0MF7L3gDeP-3" value="Natural Language" style="rounded=1;whiteSpace=wrap;html=1;fillColor=#b0e3e6;strokeColor=#0e8088;" parent="1" vertex="1">
          <mxGeometry x="390" y="280" width="60" height="30" as="geometry" />
        </mxCell>
        <mxCell id="mznChEo3XW0MF7L3gDeP-4" value="Speech" style="rounded=1;whiteSpace=wrap;html=1;fillColor=#b0e3e6;strokeColor=#0e8088;" parent="1" vertex="1">
          <mxGeometry x="460" y="280" width="60" height="30" as="geometry" />
        </mxCell>
        <mxCell id="mznChEo3XW0MF7L3gDeP-5" value="Sound Analysis" style="rounded=1;whiteSpace=wrap;html=1;fillColor=#b0e3e6;strokeColor=#0e8088;" parent="1" vertex="1">
          <mxGeometry x="530" y="280" width="60" height="30" as="geometry" />
        </mxCell>
        <mxCell id="mznChEo3XW0MF7L3gDeP-6" value="Core ML" style="rounded=1;whiteSpace=wrap;html=1;fillColor=#b0e3e6;strokeColor=#0e8088;" parent="1" vertex="1">
          <mxGeometry x="320" y="320" width="270" height="40" as="geometry" />
        </mxCell>
        <mxCell id="mznChEo3XW0MF7L3gDeP-7" value="Accelerate and BNNS" style="rounded=1;whiteSpace=wrap;html=1;fillColor=#e3c800;fontColor=#000000;strokeColor=#B09500;" parent="1" vertex="1">
          <mxGeometry x="320" y="370" width="130" height="40" as="geometry" />
        </mxCell>
        <mxCell id="mznChEo3XW0MF7L3gDeP-8" value="Metal Performance Shaders" style="rounded=1;whiteSpace=wrap;html=1;fillColor=#60a917;fontColor=#ffffff;strokeColor=#2D7600;" parent="1" vertex="1">
          <mxGeometry x="460" y="370" width="130" height="40" as="geometry" />
        </mxCell>
      </root>
    </mxGraphModel>
  </diagram>
  <diagram id="0Es1_CGr5bd8YIzIrHAI" name="Page-2">
    <mxGraphModel dx="897" dy="590" grid="0" gridSize="10" guides="1" tooltips="1" connect="1" arrows="1" fold="1" page="1" pageScale="1" pageWidth="827" pageHeight="1169" math="0" shadow="0">
      <root>
        <mxCell id="JIfcfKq5KZ4mZhQ67Mgy-0" />
        <mxCell id="JIfcfKq5KZ4mZhQ67Mgy-1" parent="JIfcfKq5KZ4mZhQ67Mgy-0" />
        <mxCell id="g6_tDpEM4kG_KcNF_E54-0" value="Paddle Inference model / Lite Naive Buffer" style="rounded=1;whiteSpace=wrap;html=1;" parent="JIfcfKq5KZ4mZhQ67Mgy-1" vertex="1">
          <mxGeometry x="267.5" y="130" width="230" height="30" as="geometry" />
        </mxCell>
        <mxCell id="g6_tDpEM4kG_KcNF_E54-18" value="" style="edgeStyle=orthogonalEdgeStyle;rounded=0;orthogonalLoop=1;jettySize=auto;html=1;" parent="JIfcfKq5KZ4mZhQ67Mgy-1" source="g6_tDpEM4kG_KcNF_E54-1" target="g6_tDpEM4kG_KcNF_E54-8" edge="1">
          <mxGeometry relative="1" as="geometry" />
        </mxCell>
        <mxCell id="g6_tDpEM4kG_KcNF_E54-1" value="Program desc" style="rounded=1;whiteSpace=wrap;html=1;" parent="JIfcfKq5KZ4mZhQ67Mgy-1" vertex="1">
          <mxGeometry x="312.5" y="180" width="140" height="40" as="geometry" />
        </mxCell>
        <mxCell id="g6_tDpEM4kG_KcNF_E54-2" value="SSAGraph" style="rounded=1;whiteSpace=wrap;html=1;" parent="JIfcfKq5KZ4mZhQ67Mgy-1" vertex="1">
          <mxGeometry x="312.5" y="240" width="140" height="40" as="geometry" />
        </mxCell>
        <mxCell id="g6_tDpEM4kG_KcNF_E54-3" value="Op fusion" style="rounded=1;whiteSpace=wrap;html=1;fillColor=#60a917;fontColor=#ffffff;strokeColor=#2D7600;" parent="JIfcfKq5KZ4mZhQ67Mgy-1" vertex="1">
          <mxGeometry x="162.5" y="307" width="80" height="40" as="geometry" />
        </mxCell>
        <mxCell id="g6_tDpEM4kG_KcNF_E54-4" value="OP elimination" style="rounded=1;whiteSpace=wrap;html=1;fillColor=#60a917;fontColor=#ffffff;strokeColor=#2D7600;" parent="JIfcfKq5KZ4mZhQ67Mgy-1" vertex="1">
          <mxGeometry x="252.5" y="307" width="80" height="40" as="geometry" />
        </mxCell>
        <mxCell id="g6_tDpEM4kG_KcNF_E54-5" value="Kernel pick" style="rounded=1;whiteSpace=wrap;html=1;fillColor=#60a917;fontColor=#ffffff;strokeColor=#2D7600;" parent="JIfcfKq5KZ4mZhQ67Mgy-1" vertex="1">
          <mxGeometry x="342.5" y="307" width="80" height="40" as="geometry" />
        </mxCell>
        <mxCell id="g6_tDpEM4kG_KcNF_E54-6" value="Type cast" style="rounded=1;whiteSpace=wrap;html=1;fillColor=#60a917;fontColor=#ffffff;strokeColor=#2D7600;" parent="JIfcfKq5KZ4mZhQ67Mgy-1" vertex="1">
          <mxGeometry x="432.5" y="307" width="80" height="40" as="geometry" />
        </mxCell>
        <mxCell id="g6_tDpEM4kG_KcNF_E54-7" value="Memory opt" style="rounded=1;whiteSpace=wrap;html=1;fillColor=#60a917;fontColor=#ffffff;strokeColor=#2D7600;" parent="JIfcfKq5KZ4mZhQ67Mgy-1" vertex="1">
          <mxGeometry x="522.5" y="307" width="80" height="40" as="geometry" />
        </mxCell>
        <mxCell id="g6_tDpEM4kG_KcNF_E54-38" value="" style="edgeStyle=orthogonalEdgeStyle;rounded=0;orthogonalLoop=1;jettySize=auto;html=1;fontSize=14;fontColor=default;" parent="JIfcfKq5KZ4mZhQ67Mgy-1" source="g6_tDpEM4kG_KcNF_E54-8" edge="1">
          <mxGeometry relative="1" as="geometry">
            <mxPoint x="383" y="380" as="targetPoint" />
            <Array as="points">
              <mxPoint x="383" y="370" />
            </Array>
          </mxGeometry>
        </mxCell>
        <mxCell id="g6_tDpEM4kG_KcNF_E54-8" value="&lt;font color=&quot;#000000&quot;&gt;&lt;br&gt;&lt;br&gt;&lt;br&gt;&lt;br&gt;&lt;/font&gt;&lt;div&gt;&lt;span&gt;&lt;font color=&quot;#000000&quot;&gt;Passes&lt;/font&gt;&lt;/span&gt;&lt;/div&gt;" style="rounded=1;whiteSpace=wrap;html=1;fillColor=none;align=center;fontColor=#ffffff;strokeColor=#2D7600;" parent="JIfcfKq5KZ4mZhQ67Mgy-1" vertex="1">
          <mxGeometry x="152.5" y="297" width="460" height="66" as="geometry" />
        </mxCell>
        <mxCell id="g6_tDpEM4kG_KcNF_E54-34" value="" style="edgeStyle=orthogonalEdgeStyle;rounded=0;orthogonalLoop=1;jettySize=auto;html=1;fontSize=14;fontColor=default;entryX=0.5;entryY=0;entryDx=0;entryDy=0;" parent="JIfcfKq5KZ4mZhQ67Mgy-1" source="g6_tDpEM4kG_KcNF_E54-9" target="g6_tDpEM4kG_KcNF_E54-26" edge="1">
          <mxGeometry relative="1" as="geometry" />
        </mxCell>
        <mxCell id="g6_tDpEM4kG_KcNF_E54-9" value="Optimized SSAGraph" style="rounded=1;whiteSpace=wrap;html=1;" parent="JIfcfKq5KZ4mZhQ67Mgy-1" vertex="1">
          <mxGeometry x="312.5" y="380" width="140" height="40" as="geometry" />
        </mxCell>
        <mxCell id="g6_tDpEM4kG_KcNF_E54-10" value="ARM kernels" style="rounded=1;whiteSpace=wrap;html=1;fillColor=none;" parent="JIfcfKq5KZ4mZhQ67Mgy-1" vertex="1">
          <mxGeometry x="222.5" y="450" width="52.5" height="40" as="geometry" />
        </mxCell>
        <mxCell id="g6_tDpEM4kG_KcNF_E54-11" value="OpenCL Kernels" style="rounded=1;whiteSpace=wrap;html=1;fillColor=none;" parent="JIfcfKq5KZ4mZhQ67Mgy-1" vertex="1">
          <mxGeometry x="343.75" y="450" width="52.5" height="40" as="geometry" />
        </mxCell>
        <mxCell id="g6_tDpEM4kG_KcNF_E54-12" value="Paddle" style="rounded=1;whiteSpace=wrap;html=1;fillColor=none;" parent="JIfcfKq5KZ4mZhQ67Mgy-1" vertex="1">
          <mxGeometry x="262.5" y="70" width="75" height="50" as="geometry" />
        </mxCell>
        <mxCell id="g6_tDpEM4kG_KcNF_E54-13" value="Tensorflow" style="rounded=1;whiteSpace=wrap;html=1;fillColor=none;" parent="JIfcfKq5KZ4mZhQ67Mgy-1" vertex="1">
          <mxGeometry x="347.5" y="70" width="60" height="20" as="geometry" />
        </mxCell>
        <mxCell id="g6_tDpEM4kG_KcNF_E54-14" value="Caffe" style="rounded=1;whiteSpace=wrap;html=1;fillColor=none;" parent="JIfcfKq5KZ4mZhQ67Mgy-1" vertex="1">
          <mxGeometry x="411.5" y="70" width="40" height="20" as="geometry" />
        </mxCell>
        <mxCell id="g6_tDpEM4kG_KcNF_E54-15" value="ONNX" style="rounded=1;whiteSpace=wrap;html=1;fillColor=none;" parent="JIfcfKq5KZ4mZhQ67Mgy-1" vertex="1">
          <mxGeometry x="457.5" y="70" width="40" height="20" as="geometry" />
        </mxCell>
        <mxCell id="g6_tDpEM4kG_KcNF_E54-16" value="X2Paddle" style="rounded=1;whiteSpace=wrap;html=1;fillColor=none;dashed=1;" parent="JIfcfKq5KZ4mZhQ67Mgy-1" vertex="1">
          <mxGeometry x="347.5" y="100" width="150" height="20" as="geometry" />
        </mxCell>
        <mxCell id="g6_tDpEM4kG_KcNF_E54-17" value="" style="endArrow=classic;html=1;rounded=0;exitX=0.5;exitY=1;exitDx=0;exitDy=0;entryX=0.5;entryY=0;entryDx=0;entryDy=0;" parent="JIfcfKq5KZ4mZhQ67Mgy-1" source="g6_tDpEM4kG_KcNF_E54-0" target="g6_tDpEM4kG_KcNF_E54-1" edge="1">
          <mxGeometry width="50" height="50" relative="1" as="geometry">
            <mxPoint x="390" y="340" as="sourcePoint" />
            <mxPoint x="440" y="290" as="targetPoint" />
          </mxGeometry>
        </mxCell>
        <mxCell id="g6_tDpEM4kG_KcNF_E54-22" value="X86 kernels" style="rounded=1;whiteSpace=wrap;html=1;fillColor=none;" parent="JIfcfKq5KZ4mZhQ67Mgy-1" vertex="1">
          <mxGeometry x="282.5" y="450" width="52.5" height="40" as="geometry" />
        </mxCell>
        <mxCell id="g6_tDpEM4kG_KcNF_E54-23" value="NNAdapter Kernels" style="rounded=1;whiteSpace=wrap;html=1;fillColor=none;" parent="JIfcfKq5KZ4mZhQ67Mgy-1" vertex="1">
          <mxGeometry x="482.5" y="450" width="60" height="40" as="geometry" />
        </mxCell>
        <mxCell id="g6_tDpEM4kG_KcNF_E54-24" value="Metal Kernels" style="rounded=1;whiteSpace=wrap;html=1;fillColor=#60a917;strokeColor=#2D7600;fontColor=#ffffff;" parent="JIfcfKq5KZ4mZhQ67Mgy-1" vertex="1">
          <mxGeometry x="404" y="450" width="60" height="40" as="geometry" />
        </mxCell>
        <mxCell id="g6_tDpEM4kG_KcNF_E54-25" value="&lt;b&gt;&lt;font style=&quot;font-size: 14px&quot;&gt;...&lt;/font&gt;&lt;/b&gt;" style="text;html=1;strokeColor=none;fillColor=none;align=center;verticalAlign=middle;whiteSpace=wrap;rounded=0;dashed=1;" parent="JIfcfKq5KZ4mZhQ67Mgy-1" vertex="1">
          <mxGeometry x="444" y="450" width="60" height="30" as="geometry" />
        </mxCell>
        <mxCell id="g6_tDpEM4kG_KcNF_E54-26" value="" style="rounded=1;whiteSpace=wrap;html=1;fontSize=14;fillColor=none;" parent="JIfcfKq5KZ4mZhQ67Mgy-1" vertex="1">
          <mxGeometry x="212.5" y="440" width="340" height="60" as="geometry" />
        </mxCell>
        <mxCell id="g6_tDpEM4kG_KcNF_E54-27" value="conv op kernels" style="rounded=1;whiteSpace=wrap;html=1;fontSize=14;fillColor=#60a917;strokeColor=#2D7600;fontColor=#ffffff;" parent="JIfcfKq5KZ4mZhQ67Mgy-1" vertex="1">
          <mxGeometry x="337.5" y="525" width="57" height="40" as="geometry" />
        </mxCell>
        <mxCell id="g6_tDpEM4kG_KcNF_E54-28" value="fc op kernels" style="rounded=1;whiteSpace=wrap;html=1;fontSize=14;fillColor=#60a917;strokeColor=#2D7600;fontColor=#ffffff;" parent="JIfcfKq5KZ4mZhQ67Mgy-1" vertex="1">
          <mxGeometry x="400" y="525" width="57" height="40" as="geometry" />
        </mxCell>
        <mxCell id="g6_tDpEM4kG_KcNF_E54-29" value="&lt;font style=&quot;font-size: 11px&quot;&gt;softmax op kernels&lt;/font&gt;" style="rounded=1;whiteSpace=wrap;html=1;fontSize=14;fillColor=#60a917;strokeColor=#2D7600;fontColor=#ffffff;" parent="JIfcfKq5KZ4mZhQ67Mgy-1" vertex="1">
          <mxGeometry x="474.5" y="525" width="56" height="40" as="geometry" />
        </mxCell>
        <mxCell id="g6_tDpEM4kG_KcNF_E54-30" value="&lt;b&gt;&lt;font style=&quot;font-size: 14px&quot;&gt;...&lt;/font&gt;&lt;/b&gt;" style="text;html=1;strokeColor=none;fillColor=none;align=center;verticalAlign=middle;whiteSpace=wrap;rounded=0;fontSize=11;" parent="JIfcfKq5KZ4mZhQ67Mgy-1" vertex="1">
          <mxGeometry x="457" y="535" width="19" height="20" as="geometry" />
        </mxCell>
        <mxCell id="g6_tDpEM4kG_KcNF_E54-32" value="" style="shape=callout;whiteSpace=wrap;html=1;perimeter=calloutPerimeter;fontSize=14;fillColor=none;direction=west;rounded=1;dashed=1;strokeColor=#2D7600;shadow=0;fontColor=default;gradientColor=none;labelBackgroundColor=none;labelBorderColor=none;" parent="JIfcfKq5KZ4mZhQ67Mgy-1" vertex="1">
          <mxGeometry x="331" y="490" width="206" height="85" as="geometry" />
        </mxCell>
        <mxCell id="g6_tDpEM4kG_KcNF_E54-35" value="Apple GPU" style="rounded=1;whiteSpace=wrap;html=1;shadow=0;dashed=1;labelBackgroundColor=none;labelBorderColor=none;fontSize=14;fontColor=#ffffff;fillColor=#647687;strokeColor=#314354;" parent="JIfcfKq5KZ4mZhQ67Mgy-1" vertex="1">
          <mxGeometry x="331" y="580" width="207" height="40" as="geometry" />
        </mxCell>
        <mxCell id="4D9Y7r6vvr9yCk1_ySXa-0" value="" style="rounded=1;whiteSpace=wrap;html=1;" parent="JIfcfKq5KZ4mZhQ67Mgy-1" vertex="1">
          <mxGeometry x="903" y="71" width="226" height="59" as="geometry" />
        </mxCell>
        <mxCell id="4D9Y7r6vvr9yCk1_ySXa-1" value="Conv" style="rounded=1;whiteSpace=wrap;html=1;" parent="JIfcfKq5KZ4mZhQ67Mgy-1" vertex="1">
          <mxGeometry x="907" y="87" width="44" height="34" as="geometry" />
        </mxCell>
        <mxCell id="4D9Y7r6vvr9yCk1_ySXa-2" value="FC" style="rounded=1;whiteSpace=wrap;html=1;" parent="JIfcfKq5KZ4mZhQ67Mgy-1" vertex="1">
          <mxGeometry x="958" y="87" width="44" height="34" as="geometry" />
        </mxCell>
        <mxCell id="4D9Y7r6vvr9yCk1_ySXa-4" value="Interp" style="rounded=1;whiteSpace=wrap;html=1;" parent="JIfcfKq5KZ4mZhQ67Mgy-1" vertex="1">
          <mxGeometry x="1008" y="87" width="44" height="34" as="geometry" />
        </mxCell>
        <mxCell id="4D9Y7r6vvr9yCk1_ySXa-5" value="Softmax" style="rounded=1;whiteSpace=wrap;html=1;" parent="JIfcfKq5KZ4mZhQ67Mgy-1" vertex="1">
          <mxGeometry x="1081" y="87" width="44" height="34" as="geometry" />
        </mxCell>
        <mxCell id="4D9Y7r6vvr9yCk1_ySXa-6" value="&lt;b&gt;...&lt;/b&gt;" style="text;html=1;strokeColor=none;fillColor=none;align=center;verticalAlign=middle;whiteSpace=wrap;rounded=0;" parent="JIfcfKq5KZ4mZhQ67Mgy-1" vertex="1">
          <mxGeometry x="1052" y="96" width="24" height="10" as="geometry" />
        </mxCell>
        <mxCell id="4D9Y7r6vvr9yCk1_ySXa-8" value="OP kernel" style="text;html=1;strokeColor=none;fillColor=none;align=center;verticalAlign=middle;whiteSpace=wrap;rounded=0;" parent="JIfcfKq5KZ4mZhQ67Mgy-1" vertex="1">
          <mxGeometry x="903" y="70" width="57" height="17" as="geometry" />
        </mxCell>
        <mxCell id="4D9Y7r6vvr9yCk1_ySXa-9" value="cmdBuf" style="rounded=1;whiteSpace=wrap;html=1;" parent="JIfcfKq5KZ4mZhQ67Mgy-1" vertex="1">
          <mxGeometry x="982.5" y="167.5" width="42" height="18" as="geometry" />
        </mxCell>
        <mxCell id="4D9Y7r6vvr9yCk1_ySXa-11" value="cmdBuf" style="rounded=1;whiteSpace=wrap;html=1;" parent="JIfcfKq5KZ4mZhQ67Mgy-1" vertex="1">
          <mxGeometry x="1031.5" y="167.5" width="42" height="18" as="geometry" />
        </mxCell>
        <mxCell id="4D9Y7r6vvr9yCk1_ySXa-12" value="cmdBuf" style="rounded=1;whiteSpace=wrap;html=1;" parent="JIfcfKq5KZ4mZhQ67Mgy-1" vertex="1">
          <mxGeometry x="1080.5" y="167.5" width="42" height="18" as="geometry" />
        </mxCell>
        <mxCell id="4D9Y7r6vvr9yCk1_ySXa-13" value="cmd queue" style="rounded=1;whiteSpace=wrap;html=1;" parent="JIfcfKq5KZ4mZhQ67Mgy-1" vertex="1">
          <mxGeometry x="983.5" y="190.5" width="138" height="19" as="geometry" />
        </mxCell>
        <mxCell id="4D9Y7r6vvr9yCk1_ySXa-14" value="" style="rounded=1;whiteSpace=wrap;html=1;fillColor=none;" parent="JIfcfKq5KZ4mZhQ67Mgy-1" vertex="1">
          <mxGeometry x="978" y="146" width="149" height="66" as="geometry" />
        </mxCell>
        <mxCell id="4D9Y7r6vvr9yCk1_ySXa-15" value="Context" style="text;html=1;strokeColor=none;fillColor=none;align=center;verticalAlign=middle;whiteSpace=wrap;rounded=0;" parent="JIfcfKq5KZ4mZhQ67Mgy-1" vertex="1">
          <mxGeometry x="980.5" y="146" width="42" height="19" as="geometry" />
        </mxCell>
        <mxCell id="4D9Y7r6vvr9yCk1_ySXa-16" value="Texture" style="rounded=1;whiteSpace=wrap;html=1;fillColor=none;" parent="JIfcfKq5KZ4mZhQ67Mgy-1" vertex="1">
          <mxGeometry x="910" y="167.5" width="40" height="17" as="geometry" />
        </mxCell>
        <mxCell id="4D9Y7r6vvr9yCk1_ySXa-17" value="Buffer" style="rounded=1;whiteSpace=wrap;html=1;fillColor=none;" parent="JIfcfKq5KZ4mZhQ67Mgy-1" vertex="1">
          <mxGeometry x="910" y="189" width="41" height="16" as="geometry" />
        </mxCell>
        <mxCell id="4D9Y7r6vvr9yCk1_ySXa-18" value="" style="rounded=1;whiteSpace=wrap;html=1;fillColor=#d5e8d4;strokeColor=#82b366;" parent="JIfcfKq5KZ4mZhQ67Mgy-1" vertex="1">
          <mxGeometry x="903" y="224" width="160" height="32" as="geometry" />
        </mxCell>
        <mxCell id="4D9Y7r6vvr9yCk1_ySXa-19" value="" style="rounded=1;whiteSpace=wrap;html=1;fillColor=none;" parent="JIfcfKq5KZ4mZhQ67Mgy-1" vertex="1">
          <mxGeometry x="903" y="145.5" width="55" height="65.5" as="geometry" />
        </mxCell>
        <mxCell id="4D9Y7r6vvr9yCk1_ySXa-20" value="Data" style="text;html=1;strokeColor=none;fillColor=none;align=center;verticalAlign=middle;whiteSpace=wrap;rounded=0;" parent="JIfcfKq5KZ4mZhQ67Mgy-1" vertex="1">
          <mxGeometry x="903" y="142" width="34" height="22" as="geometry" />
        </mxCell>
        <mxCell id="4D9Y7r6vvr9yCk1_ySXa-21" value="&lt;div&gt;&lt;span&gt;&lt;font style=&quot;font-size: 10px&quot;&gt;MPS&lt;/font&gt;&lt;/span&gt;&lt;/div&gt;" style="rounded=1;whiteSpace=wrap;html=1;fillColor=#fff2cc;align=center;strokeColor=#d6b656;" parent="JIfcfKq5KZ4mZhQ67Mgy-1" vertex="1">
          <mxGeometry x="1071" y="224" width="55" height="32" as="geometry" />
        </mxCell>
        <mxCell id="4D9Y7r6vvr9yCk1_ySXa-22" value="Conv" style="rounded=1;whiteSpace=wrap;html=1;fontFamily=Helvetica;fontSize=10;fillColor=none;" parent="JIfcfKq5KZ4mZhQ67Mgy-1" vertex="1">
          <mxGeometry x="914" y="232.5" width="31" height="17" as="geometry" />
        </mxCell>
        <mxCell id="4D9Y7r6vvr9yCk1_ySXa-23" value="FC" style="rounded=1;whiteSpace=wrap;html=1;fontFamily=Helvetica;fontSize=10;fillColor=none;" parent="JIfcfKq5KZ4mZhQ67Mgy-1" vertex="1">
          <mxGeometry x="956.5" y="232.5" width="30.5" height="17" as="geometry" />
        </mxCell>
        <mxCell id="4D9Y7r6vvr9yCk1_ySXa-24" value="Softmax" style="rounded=1;whiteSpace=wrap;html=1;fontFamily=Helvetica;fontSize=10;fillColor=none;" parent="JIfcfKq5KZ4mZhQ67Mgy-1" vertex="1">
          <mxGeometry x="1016" y="232.5" width="43" height="17" as="geometry" />
        </mxCell>
        <mxCell id="4D9Y7r6vvr9yCk1_ySXa-25" value="&lt;b&gt;...&lt;/b&gt;" style="text;html=1;strokeColor=none;fillColor=none;align=center;verticalAlign=middle;whiteSpace=wrap;rounded=0;fontFamily=Helvetica;fontSize=10;" parent="JIfcfKq5KZ4mZhQ67Mgy-1" vertex="1">
          <mxGeometry x="982" y="232.5" width="34" height="14" as="geometry" />
        </mxCell>
        <mxCell id="4D9Y7r6vvr9yCk1_ySXa-26" value="Shader&lt;br&gt;kernel" style="text;html=1;strokeColor=none;fillColor=none;align=center;verticalAlign=middle;whiteSpace=wrap;rounded=0;fontFamily=Helvetica;fontSize=10;" parent="JIfcfKq5KZ4mZhQ67Mgy-1" vertex="1">
          <mxGeometry x="863" y="231.5" width="40" height="15" as="geometry" />
        </mxCell>
        <mxCell id="4D9Y7r6vvr9yCk1_ySXa-27" value="" style="endArrow=none;dashed=1;html=1;rounded=0;fontFamily=Helvetica;fontSize=10;" parent="JIfcfKq5KZ4mZhQ67Mgy-1" edge="1">
          <mxGeometry width="50" height="50" relative="1" as="geometry">
            <mxPoint x="875" y="134" as="sourcePoint" />
            <mxPoint x="1131" y="134" as="targetPoint" />
          </mxGeometry>
        </mxCell>
        <mxCell id="4D9Y7r6vvr9yCk1_ySXa-28" value="C++" style="text;html=1;strokeColor=none;fillColor=none;align=center;verticalAlign=middle;whiteSpace=wrap;rounded=0;fontFamily=Helvetica;fontSize=10;" parent="JIfcfKq5KZ4mZhQ67Mgy-1" vertex="1">
          <mxGeometry x="870" y="92.5" width="31" height="15" as="geometry" />
        </mxCell>
        <mxCell id="4D9Y7r6vvr9yCk1_ySXa-29" value="Object C" style="text;html=1;strokeColor=none;fillColor=none;align=center;verticalAlign=middle;whiteSpace=wrap;rounded=0;fontFamily=Helvetica;fontSize=10;" parent="JIfcfKq5KZ4mZhQ67Mgy-1" vertex="1">
          <mxGeometry x="870" y="171.5" width="31" height="15" as="geometry" />
        </mxCell>
        <mxCell id="4D9Y7r6vvr9yCk1_ySXa-31" value="" style="endArrow=none;dashed=1;html=1;rounded=0;fontFamily=Helvetica;fontSize=10;" parent="JIfcfKq5KZ4mZhQ67Mgy-1" edge="1">
          <mxGeometry width="50" height="50" relative="1" as="geometry">
            <mxPoint x="873.5" y="214" as="sourcePoint" />
            <mxPoint x="1129.5" y="214" as="targetPoint" />
          </mxGeometry>
        </mxCell>
        <mxCell id="4D9Y7r6vvr9yCk1_ySXa-66" value="" style="edgeStyle=orthogonalEdgeStyle;rounded=0;orthogonalLoop=1;jettySize=auto;html=1;fontFamily=Helvetica;fontSize=10;entryX=0.5;entryY=0;entryDx=0;entryDy=0;" parent="JIfcfKq5KZ4mZhQ67Mgy-1" source="4D9Y7r6vvr9yCk1_ySXa-37" target="4D9Y7r6vvr9yCk1_ySXa-38" edge="1">
          <mxGeometry relative="1" as="geometry">
            <Array as="points">
              <mxPoint x="1026" y="415" />
              <mxPoint x="894" y="415" />
            </Array>
          </mxGeometry>
        </mxCell>
        <mxCell id="4D9Y7r6vvr9yCk1_ySXa-67" value="" style="edgeStyle=orthogonalEdgeStyle;rounded=0;orthogonalLoop=1;jettySize=auto;html=1;fontFamily=Helvetica;fontSize=10;entryX=0.5;entryY=0;entryDx=0;entryDy=0;" parent="JIfcfKq5KZ4mZhQ67Mgy-1" source="4D9Y7r6vvr9yCk1_ySXa-37" target="4D9Y7r6vvr9yCk1_ySXa-39" edge="1">
          <mxGeometry relative="1" as="geometry">
            <Array as="points">
              <mxPoint x="1026" y="415" />
              <mxPoint x="972" y="415" />
            </Array>
          </mxGeometry>
        </mxCell>
        <mxCell id="4D9Y7r6vvr9yCk1_ySXa-68" value="" style="edgeStyle=orthogonalEdgeStyle;rounded=0;orthogonalLoop=1;jettySize=auto;html=1;fontFamily=Helvetica;fontSize=10;entryX=0.5;entryY=0;entryDx=0;entryDy=0;" parent="JIfcfKq5KZ4mZhQ67Mgy-1" source="4D9Y7r6vvr9yCk1_ySXa-37" target="4D9Y7r6vvr9yCk1_ySXa-42" edge="1">
          <mxGeometry relative="1" as="geometry">
            <Array as="points">
              <mxPoint x="1026" y="415" />
              <mxPoint x="1049" y="415" />
            </Array>
          </mxGeometry>
        </mxCell>
        <mxCell id="4D9Y7r6vvr9yCk1_ySXa-70" value="" style="edgeStyle=orthogonalEdgeStyle;rounded=0;orthogonalLoop=1;jettySize=auto;html=1;fontFamily=Helvetica;fontSize=10;entryX=0.5;entryY=0;entryDx=0;entryDy=0;" parent="JIfcfKq5KZ4mZhQ67Mgy-1" source="4D9Y7r6vvr9yCk1_ySXa-37" target="4D9Y7r6vvr9yCk1_ySXa-43" edge="1">
          <mxGeometry relative="1" as="geometry">
            <Array as="points">
              <mxPoint x="1026" y="415" />
              <mxPoint x="1125" y="415" />
            </Array>
          </mxGeometry>
        </mxCell>
        <mxCell id="4D9Y7r6vvr9yCk1_ySXa-37" value="OP" style="rounded=1;whiteSpace=wrap;html=1;fontFamily=Helvetica;fontSize=10;fillColor=none;" parent="JIfcfKq5KZ4mZhQ67Mgy-1" vertex="1">
          <mxGeometry x="983.5" y="373" width="84" height="33" as="geometry" />
        </mxCell>
        <mxCell id="4D9Y7r6vvr9yCk1_ySXa-61" value="" style="edgeStyle=orthogonalEdgeStyle;rounded=0;orthogonalLoop=1;jettySize=auto;html=1;fontFamily=Helvetica;fontSize=10;entryX=0.25;entryY=0;entryDx=0;entryDy=0;" parent="JIfcfKq5KZ4mZhQ67Mgy-1" source="4D9Y7r6vvr9yCk1_ySXa-38" target="4D9Y7r6vvr9yCk1_ySXa-41" edge="1">
          <mxGeometry relative="1" as="geometry">
            <Array as="points">
              <mxPoint x="894" y="473" />
              <mxPoint x="955" y="473" />
            </Array>
          </mxGeometry>
        </mxCell>
        <mxCell id="4D9Y7r6vvr9yCk1_ySXa-62" value="" style="edgeStyle=orthogonalEdgeStyle;rounded=0;orthogonalLoop=1;jettySize=auto;html=1;fontFamily=Helvetica;fontSize=10;entryX=0.5;entryY=0;entryDx=0;entryDy=0;" parent="JIfcfKq5KZ4mZhQ67Mgy-1" source="4D9Y7r6vvr9yCk1_ySXa-38" target="4D9Y7r6vvr9yCk1_ySXa-40" edge="1">
          <mxGeometry relative="1" as="geometry">
            <mxPoint x="907" y="501" as="targetPoint" />
          </mxGeometry>
        </mxCell>
        <mxCell id="4D9Y7r6vvr9yCk1_ySXa-38" value="Metal Kernel" style="rounded=1;whiteSpace=wrap;html=1;fontFamily=Helvetica;fontSize=10;fillColor=none;" parent="JIfcfKq5KZ4mZhQ67Mgy-1" vertex="1">
          <mxGeometry x="864" y="429" width="60" height="32" as="geometry" />
        </mxCell>
        <mxCell id="4D9Y7r6vvr9yCk1_ySXa-55" value="" style="edgeStyle=orthogonalEdgeStyle;rounded=0;orthogonalLoop=1;jettySize=auto;html=1;fontFamily=Helvetica;fontSize=10;entryX=0.75;entryY=0;entryDx=0;entryDy=0;exitX=0.5;exitY=1;exitDx=0;exitDy=0;" parent="JIfcfKq5KZ4mZhQ67Mgy-1" source="4D9Y7r6vvr9yCk1_ySXa-39" target="4D9Y7r6vvr9yCk1_ySXa-40" edge="1">
          <mxGeometry relative="1" as="geometry">
            <Array as="points">
              <mxPoint x="972" y="468" />
              <mxPoint x="910" y="468" />
            </Array>
          </mxGeometry>
        </mxCell>
        <mxCell id="4D9Y7r6vvr9yCk1_ySXa-56" value="" style="edgeStyle=orthogonalEdgeStyle;rounded=0;orthogonalLoop=1;jettySize=auto;html=1;fontFamily=Helvetica;fontSize=10;entryX=0.5;entryY=0;entryDx=0;entryDy=0;" parent="JIfcfKq5KZ4mZhQ67Mgy-1" source="4D9Y7r6vvr9yCk1_ySXa-39" target="4D9Y7r6vvr9yCk1_ySXa-41" edge="1">
          <mxGeometry relative="1" as="geometry" />
        </mxCell>
        <mxCell id="4D9Y7r6vvr9yCk1_ySXa-39" value="Metal Kernel" style="rounded=1;whiteSpace=wrap;html=1;fontFamily=Helvetica;fontSize=10;fillColor=none;" parent="JIfcfKq5KZ4mZhQ67Mgy-1" vertex="1">
          <mxGeometry x="939" y="429" width="66" height="32" as="geometry" />
        </mxCell>
        <mxCell id="4D9Y7r6vvr9yCk1_ySXa-64" value="" style="edgeStyle=orthogonalEdgeStyle;rounded=0;orthogonalLoop=1;jettySize=auto;html=1;fontFamily=Helvetica;fontSize=10;" parent="JIfcfKq5KZ4mZhQ67Mgy-1" source="4D9Y7r6vvr9yCk1_ySXa-40" target="4D9Y7r6vvr9yCk1_ySXa-46" edge="1">
          <mxGeometry relative="1" as="geometry">
            <Array as="points">
              <mxPoint x="895" y="529" />
              <mxPoint x="931" y="529" />
            </Array>
          </mxGeometry>
        </mxCell>
        <mxCell id="4D9Y7r6vvr9yCk1_ySXa-40" value="Shader Kernel" style="rounded=1;whiteSpace=wrap;html=1;fontFamily=Helvetica;fontSize=10;fillColor=none;" parent="JIfcfKq5KZ4mZhQ67Mgy-1" vertex="1">
          <mxGeometry x="864" y="488" width="61" height="32" as="geometry" />
        </mxCell>
        <mxCell id="4D9Y7r6vvr9yCk1_ySXa-65" value="" style="edgeStyle=orthogonalEdgeStyle;rounded=0;orthogonalLoop=1;jettySize=auto;html=1;fontFamily=Helvetica;fontSize=10;" parent="JIfcfKq5KZ4mZhQ67Mgy-1" source="4D9Y7r6vvr9yCk1_ySXa-41" target="4D9Y7r6vvr9yCk1_ySXa-46" edge="1">
          <mxGeometry relative="1" as="geometry">
            <Array as="points">
              <mxPoint x="972" y="529" />
              <mxPoint x="931" y="529" />
            </Array>
          </mxGeometry>
        </mxCell>
        <mxCell id="4D9Y7r6vvr9yCk1_ySXa-41" value="MPS" style="rounded=1;whiteSpace=wrap;html=1;fontFamily=Helvetica;fontSize=10;fillColor=none;" parent="JIfcfKq5KZ4mZhQ67Mgy-1" vertex="1">
          <mxGeometry x="938.75" y="488" width="66" height="32" as="geometry" />
        </mxCell>
        <mxCell id="4D9Y7r6vvr9yCk1_ySXa-60" value="" style="edgeStyle=orthogonalEdgeStyle;rounded=0;orthogonalLoop=1;jettySize=auto;html=1;fontFamily=Helvetica;fontSize=10;" parent="JIfcfKq5KZ4mZhQ67Mgy-1" source="4D9Y7r6vvr9yCk1_ySXa-42" target="4D9Y7r6vvr9yCk1_ySXa-59" edge="1">
          <mxGeometry relative="1" as="geometry" />
        </mxCell>
        <mxCell id="4D9Y7r6vvr9yCk1_ySXa-42" value="x86 Kernel" style="rounded=1;whiteSpace=wrap;html=1;fontFamily=Helvetica;fontSize=10;fillColor=none;" parent="JIfcfKq5KZ4mZhQ67Mgy-1" vertex="1">
          <mxGeometry x="1020.5" y="429" width="57.5" height="32" as="geometry" />
        </mxCell>
        <mxCell id="4D9Y7r6vvr9yCk1_ySXa-58" value="" style="edgeStyle=orthogonalEdgeStyle;rounded=0;orthogonalLoop=1;jettySize=auto;html=1;fontFamily=Helvetica;fontSize=10;" parent="JIfcfKq5KZ4mZhQ67Mgy-1" source="4D9Y7r6vvr9yCk1_ySXa-43" target="4D9Y7r6vvr9yCk1_ySXa-45" edge="1">
          <mxGeometry relative="1" as="geometry" />
        </mxCell>
        <mxCell id="4D9Y7r6vvr9yCk1_ySXa-43" value="ARM Kernel" style="rounded=1;whiteSpace=wrap;html=1;fontFamily=Helvetica;fontSize=10;fillColor=none;" parent="JIfcfKq5KZ4mZhQ67Mgy-1" vertex="1">
          <mxGeometry x="1094" y="429" width="61" height="32" as="geometry" />
        </mxCell>
        <mxCell id="4D9Y7r6vvr9yCk1_ySXa-45" value="ARM CPU" style="rounded=1;whiteSpace=wrap;html=1;fontFamily=Helvetica;fontSize=10;fillColor=#fad9d5;strokeColor=#ae4132;" parent="JIfcfKq5KZ4mZhQ67Mgy-1" vertex="1">
          <mxGeometry x="1094" y="484" width="61" height="32" as="geometry" />
        </mxCell>
        <mxCell id="4D9Y7r6vvr9yCk1_ySXa-46" value="Apple GPU" style="rounded=1;whiteSpace=wrap;html=1;fontFamily=Helvetica;fontSize=10;fillColor=#60a917;fontColor=#ffffff;strokeColor=#2D7600;" parent="JIfcfKq5KZ4mZhQ67Mgy-1" vertex="1">
          <mxGeometry x="893" y="543" width="77" height="32" as="geometry" />
        </mxCell>
        <mxCell id="4D9Y7r6vvr9yCk1_ySXa-59" value="x86 CPU" style="rounded=1;whiteSpace=wrap;html=1;fontFamily=Helvetica;fontSize=10;fillColor=#d0cee2;strokeColor=#56517e;" parent="JIfcfKq5KZ4mZhQ67Mgy-1" vertex="1">
          <mxGeometry x="1018.75" y="484" width="61" height="32" as="geometry" />
        </mxCell>
        <mxCell id="4D9Y7r6vvr9yCk1_ySXa-71" value="&lt;table border=&quot;1&quot; width=&quot;100%&quot; cellpadding=&quot;4&quot; style=&quot;width: 100% ; height: 100% ; border-collapse: collapse&quot;&gt;&lt;tbody&gt;&lt;tr style=&quot;background-color: #a7c942 ; color: #ffffff ; border: 1px solid #98bf21&quot;&gt;&lt;th align=&quot;left&quot;&gt;框架&lt;/th&gt;&lt;th align=&quot;left&quot;&gt;方案&lt;/th&gt;&lt;th align=&quot;left&quot;&gt;内存对象&lt;/th&gt;&lt;/tr&gt;&lt;tr style=&quot;border: 1px solid #98bf21&quot;&gt;&lt;td&gt;TF Lite&lt;/td&gt;&lt;td&gt;Metal&lt;/td&gt;&lt;td&gt;buffer + texture&lt;/td&gt;&lt;/tr&gt;&lt;tr style=&quot;background-color: #eaf2d3 ; border: 1px solid #98bf21&quot;&gt;&lt;td&gt;TNN&lt;/td&gt;&lt;td&gt;Metal&lt;/td&gt;&lt;td&gt;buffer&lt;/td&gt;&lt;/tr&gt;&lt;tr style=&quot;border: 1px solid #98bf21&quot;&gt;&lt;td&gt;MNN&lt;/td&gt;&lt;td&gt;Metal&lt;/td&gt;&lt;td&gt;buffer&lt;/td&gt;&lt;/tr&gt;&lt;tr style=&quot;background-color: #eaf2d3 ; border: 1px solid #98bf21&quot;&gt;&lt;td&gt;Paddle Lite&lt;/td&gt;&lt;td&gt;&lt;br&gt;&lt;/td&gt;&lt;td&gt;&lt;br&gt;&lt;/td&gt;&lt;/tr&gt;&lt;/tbody&gt;&lt;/table&gt;" style="text;html=1;strokeColor=#c0c0c0;fillColor=#ffffff;overflow=fill;rounded=0;fontFamily=Helvetica;fontSize=10;" parent="JIfcfKq5KZ4mZhQ67Mgy-1" vertex="1">
          <mxGeometry x="1303" y="164" width="250" height="139" as="geometry" />
        </mxCell>
      </root>
    </mxGraphModel>
  </diagram>
  <diagram id="bbRb1xnHsiq9MEraZv6J" name="第 3 页">
    <mxGraphModel dx="561" dy="393" grid="0" gridSize="10" guides="1" tooltips="1" connect="1" arrows="1" fold="1" page="1" pageScale="1" pageWidth="827" pageHeight="1169" math="0" shadow="0">
      <root>
        <mxCell id="SLr03e4NeRBzNiNSBeTN-0" />
        <mxCell id="SLr03e4NeRBzNiNSBeTN-1" parent="SLr03e4NeRBzNiNSBeTN-0" />
        <mxCell id="SLr03e4NeRBzNiNSBeTN-2" value="推理部署" style="rounded=1;whiteSpace=wrap;html=1;strokeColor=#7EA6E0;" vertex="1" parent="SLr03e4NeRBzNiNSBeTN-1">
          <mxGeometry x="340" y="130" width="90" height="40" as="geometry" />
        </mxCell>
        <mxCell id="SLr03e4NeRBzNiNSBeTN-3" value="Paddle Lite" style="rounded=1;whiteSpace=wrap;html=1;strokeColor=#7EA6E0;" vertex="1" parent="SLr03e4NeRBzNiNSBeTN-1">
          <mxGeometry x="220" y="200" width="90" height="40" as="geometry" />
        </mxCell>
        <mxCell id="SLr03e4NeRBzNiNSBeTN-4" value="Paddle Inference" style="rounded=1;whiteSpace=wrap;html=1;strokeColor=#7EA6E0;" vertex="1" parent="SLr03e4NeRBzNiNSBeTN-1">
          <mxGeometry x="340" y="200" width="90" height="40" as="geometry" />
        </mxCell>
        <mxCell id="SLr03e4NeRBzNiNSBeTN-5" value="Paddle Serving" style="rounded=1;whiteSpace=wrap;html=1;strokeColor=#7EA6E0;" vertex="1" parent="SLr03e4NeRBzNiNSBeTN-1">
          <mxGeometry x="460" y="200" width="90" height="40" as="geometry" />
        </mxCell>
        <mxCell id="SLr03e4NeRBzNiNSBeTN-6" value="" style="shape=curlyBracket;whiteSpace=wrap;html=1;rounded=1;flipH=1;direction=south;strokeColor=#7EA6E0;" vertex="1" parent="SLr03e4NeRBzNiNSBeTN-1">
          <mxGeometry x="270" y="170" width="230" height="30" as="geometry" />
        </mxCell>
        <mxCell id="SLr03e4NeRBzNiNSBeTN-10" value="&lt;ul&gt;&lt;li&gt;&lt;font size=&quot;3&quot;&gt;&lt;br&gt;&lt;/font&gt;&lt;/li&gt;&lt;/ul&gt;" style="text;html=1;strokeColor=none;fillColor=none;align=left;verticalAlign=middle;whiteSpace=wrap;rounded=0;fontSize=12;" vertex="1" parent="SLr03e4NeRBzNiNSBeTN-1">
          <mxGeometry x="479" y="417" width="170" height="110" as="geometry" />
        </mxCell>
      </root>
    </mxGraphModel>
  </diagram>
</mxfile>
